# xmcd
#
# Track frame offsets:
#	150
#	24071
#	86486
#	113971
#	133716
#	167663
#	212519
#	237135
#
# Disc length: 3241 seconds
#
# Revision: 1
# Processed by: cddbd v1.5.2PL0 Copyright (c) Steve Scherf et al.
# Submitted via: CDmax 2.0
#
DISCID=5a0ca708
DTITLE=Eric Clapton - Tokyo 7th Night (disc2)
DYEAR=2009
DGENRE=Blues
TTITLE0=Motherless Children
TTITLE1=Little Queen of Spades
TTITLE2=Before You Accuse Me
TTITLE3=Wonderful Tonight
TTITLE4=Layla
TTITLE5=Cocaine
TTITLE6=Crossroads
TTITLE7=outro
EXTD=Eric Clapton\tguitar, vocals\nDoyle Bramhall II\tguitar, vocals\nChris S
EXTD=tainton\tkeyboards\nWillie Weeks\tbass\nAbe Laboriel, Jr.\tdrums\nMichel
EXTD=le John\tbacking vocals\nSharon White\tbacking vocals\n\nRecorded live a
EXTD=t Budokan, Tokyo, Japan on February 28th, 2009
EXTT0=
EXTT1=
EXTT2=
EXTT3=
EXTT4=
EXTT5=
EXTT6=encore
EXTT7=
PLAYORDER=
